<svg width="74" height="74" viewBox="0 0 74 74" fill="none" xmlns="http://www.w3.org/2000/svg">
<path id="XMLID_547_" d="M3.8183 21.3915C8.11014 12.651 15.5489 6.105 24.7641 2.95911C33.9795 -0.186398 43.8682 0.444756 52.6087 4.7366C61.3492 9.02845 67.8952 16.4672 71.0411 25.6824C74.1866 34.8978 73.5555 44.7865 69.2636 53.527C67.879 56.3468 66.1412 58.9736 64.0984 61.3343C63.7044 61.7897 63.1364 62.0577 62.5344 62.0721C61.9324 62.0866 61.3522 61.8462 60.9368 61.4102C60.578 61.0337 60.1567 60.7253 59.6847 60.4935C57.4976 59.4196 54.8445 60.3253 53.7706 62.5123C53.6793 62.6982 53.5992 62.8963 53.5326 63.1013C53.34 63.6932 52.9002 64.1706 52.327 64.411C51.7538 64.6513 51.1044 64.63 50.5479 64.3526C50.5243 64.3409 50.5014 64.3288 50.4785 64.3166C48.2954 63.259 45.656 64.1659 44.5856 66.3459C44.4943 66.5317 44.4142 66.7299 44.3476 66.9348C44.1548 67.5269 43.7151 68.0043 43.142 68.2445C42.5689 68.4848 41.9194 68.4635 41.3629 68.1862C41.3395 68.1745 41.3166 68.1625 41.2938 68.1503C39.1107 67.0925 36.4711 67.9993 35.4006 70.1794C35.1561 70.6773 35.0092 71.2094 34.9636 71.7611C34.9161 72.3353 34.639 72.8658 34.1946 73.2325C33.7504 73.5993 33.177 73.771 32.6043 73.7089C28.3895 73.2517 24.3082 72.065 20.4732 70.1819C11.7327 65.8901 5.18669 58.4513 2.0408 49.2361C-1.1047 40.0208 -0.473549 30.132 3.8183 21.3915Z" fill="#774E2E"/>
</svg>
