<svg width="48" height="59" viewBox="0 0 48 59" fill="none" xmlns="http://www.w3.org/2000/svg">
<g id="&#208;&#186;&#209;&#128;&#208;&#190;&#209;&#136;&#208;&#186;&#208;&#184;">
<g id="Group 29">
<path id="Vector" d="M47.4232 9.01538C47.2441 8.2965 45.9307 7.75734 45.0948 8.11678C43.9008 8.59603 43.3635 9.01538 43.7814 10.3932C43.9008 10.8725 44.4978 11.9508 44.7963 12.0107C45.2142 12.1904 46.2292 12.2503 46.5277 11.9508C47.4232 11.1121 47.5426 9.55453 47.4232 9.01538Z" fill="#DDA85F"/>
<path id="Vector_2" d="M44.8933 11.086C45.0036 11.4537 46.8136 10.8037 46.5981 10.1512C46.1796 9.05341 46.1696 8.88764 45.8211 8.95026C45.1731 9.15575 44.8319 10.7985 44.8933 11.086Z" fill="#F2CB7D"/>
</g>
<g id="Group 32">
<path id="Vector_3" d="M4.6214 14.0702C4.4423 13.3513 3.12885 12.8122 2.29303 13.1716C1.09899 13.6508 0.561668 14.0702 0.979582 15.448C1.09899 15.9273 1.69601 17.0056 1.99452 17.0655C2.41243 17.2452 3.42736 17.3051 3.72587 17.0056C4.6214 16.1669 4.74081 14.6093 4.6214 14.0702Z" fill="#DDA85F"/>
<path id="Vector_4" d="M2.09135 16.1407C2.2016 16.5084 4.01162 15.8584 3.79612 15.2059C3.37763 14.1081 3.36763 13.9424 3.01917 14.005C2.37113 14.2105 2.02997 15.8532 2.09135 16.1407Z" fill="#F2CB7D"/>
</g>
<g id="Group 34">
<path id="Vector_5" d="M47.7409 46.8348C47.6356 46.4119 46.8629 46.0948 46.3713 46.3062C45.6689 46.5881 45.3528 46.8348 45.5986 47.6453C45.6689 47.9272 46.0201 48.5616 46.1957 48.5968C46.4415 48.7025 47.0385 48.7378 47.2141 48.5616C47.7409 48.0682 47.8112 47.152 47.7409 46.8348Z" fill="#DDA85F"/>
<path id="Vector_6" d="M46.2525 48.0527C46.3174 48.269 47.3821 47.8866 47.2554 47.5028C47.0092 46.857 47.0033 46.7595 46.7983 46.7964C46.4171 46.9172 46.2164 47.8836 46.2525 48.0527Z" fill="#F2CB7D"/>
</g>
<g id="Group 28">
<path id="Vector_7" d="M13.9259 0.963707C12.9123 1.21712 12.152 3.07544 12.6588 4.25802C13.3346 5.94741 14.9395 6.20082 16.7134 5.27165C18.2338 4.51143 18.3183 1.8084 17.896 1.30158C16.6289 0.0345419 14.6861 0.794768 13.9259 0.963707Z" fill="#DDA85F"/>
<path id="Vector_8" d="M13.8743 2.05711C13.3675 2.6484 12.9452 5.01355 14.2122 4.67567C16.4929 3.99991 18.0978 1.71924 17.0842 1.38136C15.8171 0.95901 14.4656 1.38136 13.8743 2.05711Z" fill="#F2CB7D"/>
</g>
<g id="Group 35">
<path id="Vector_9" d="M24.644 46.8622C23.835 47.0645 23.2282 48.5477 23.6327 49.4917C24.1721 50.8401 25.4531 51.0424 26.869 50.3007C28.0826 49.6939 28.15 47.5364 27.8129 47.1319C26.8015 46.1205 25.2508 46.7273 24.644 46.8622Z" fill="#DDA85F"/>
<path id="Vector_10" d="M24.6029 47.7347C24.1984 48.2067 23.8613 50.0945 24.8726 49.8248C26.693 49.2854 27.9741 47.465 27.165 47.1954C26.1537 46.8582 25.0749 47.1954 24.6029 47.7347Z" fill="#F2CB7D"/>
</g>
<g id="Group 31">
<path id="Vector_11" d="M32.6087 16.0027C32.405 15.1852 30.9113 14.572 29.9608 14.9808C28.6029 15.5258 27.9918 16.0027 28.4671 17.5697C28.6029 18.1147 29.2818 19.341 29.6213 19.4091C30.0966 19.6135 31.2508 19.6816 31.5903 19.341C32.6087 18.3872 32.7445 16.6159 32.6087 16.0027Z" fill="#DDA85F"/>
<path id="Vector_12" d="M30.8339 19.0279C31.4198 19.2543 32.2685 16.3814 31.21 16.0041C29.3766 15.4383 29.1498 15.2873 28.9044 15.7788C28.5649 16.7805 30.3991 18.8203 30.8339 19.0279Z" fill="#F2CB7D"/>
</g>
<g id="Group 33">
<path id="Vector_13" d="M6.92749 43.0699C6.72381 42.2523 5.2301 41.6392 4.27955 42.048C2.92163 42.593 2.31057 43.0699 2.78584 44.6368C2.92163 45.1819 3.60059 46.4082 3.94007 46.4763C4.41534 46.6807 5.56958 46.7488 5.90905 46.4082C6.92749 45.4544 7.06329 43.683 6.92749 43.0699Z" fill="#DDA85F"/>
<path id="Vector_14" d="M5.15239 46.0948C5.73834 46.3212 6.58696 43.4483 5.52849 43.071C3.69512 42.5052 3.46826 42.3542 3.22289 42.8457C2.88336 43.8474 4.71763 45.8872 5.15239 46.0948Z" fill="#F2CB7D"/>
</g>
<g id="Group 30">
<path id="Vector_15" d="M12.4848 56.0954C12.3272 55.4647 11.1708 54.9916 10.435 55.307C9.38382 55.7275 8.91078 56.0954 9.2787 57.3042C9.38382 57.7247 9.90941 58.6708 10.1722 58.7234C10.5401 58.881 11.4336 58.9336 11.6964 58.6708C12.4848 57.935 12.59 56.5684 12.4848 56.0954Z" fill="#DDA85F"/>
<path id="Vector_16" d="M11.5916 55.6225C11.4865 55.1494 9.27895 55.8327 9.48919 56.6737C9.90967 58.0928 9.90967 58.303 10.3301 58.2505C11.1185 58.0402 11.6441 55.9904 11.5916 55.6225Z" fill="#F2CB7D"/>
</g>
</g>
</svg>
